<svg role="img" aria-label="Paleta golpeando una pelota de ping pong" xmlns="http://www.w3.org/2000/svg" width="638" height="702" viewBox="0 0 638 702" version="1.1">
&#x9;<path d="M 339.500 23.991 C 321.833 25.491, 302.104 29.538, 282.732 35.635 C 271.891 39.047, 250.016 48.767, 237.509 55.730 C 224.893 62.754, 208.142 74.103, 196.500 83.515 C 184.180 93.476, 162.091 116.302, 152.502 128.983 C 143.519 140.861, 134.094 155.880, 127.918 168.159 C 118.814 186.260, 111.156 208.759, 108.040 226.566 C 105.992 238.273, 105.130 256.678, 106.033 269.425 C 107.395 288.645, 110.796 304.440, 117.164 321.115 L 120.115 328.843 239.808 402.670 C 377.036 487.313, 360.744 479.128, 383.021 474.617 C 406.540 469.854, 429.628 460.290, 447.603 447.864 C 457.699 440.884, 472.670 428.232, 479.008 421.322 C 487.594 411.962, 499.854 396.251, 506.656 385.890 C 514.611 373.775, 524.534 354.763, 530.384 340.429 C 535.753 327.276, 542.204 306.208, 544.908 292.997 C 551.729 259.675, 552.615 224.400, 547.394 194 C 545.518 183.077, 540.990 164, 540.273 164 C 539.970 164, 537.646 165.275, 535.111 166.834 C 529.255 170.433, 519.115 174.448, 511.888 176.029 C 508.305 176.813, 501.979 177.071, 494.388 176.743 C 484.979 176.337, 480.891 175.668, 474.782 173.535 C 465.479 170.287, 456.744 164.801, 448.726 157.169 C 435.195 144.290, 428.390 129.122, 427.338 109.500 C 426.683 97.268, 428.495 87.702, 433.439 77.291 C 438.021 67.642, 442.038 61.949, 449.180 54.983 L 455.090 49.217 444.295 43.703 C 432.956 37.911, 417.916 32.285, 405.116 29.048 C 386.840 24.425, 359.343 22.306, 339.500 23.991 M 482.500 49.931 C 473.029 52.739, 464.612 57.494, 457.796 63.890 C 438.616 81.888, 433.863 108.913, 445.639 133 C 452.476 146.984, 467.947 159.365, 483.644 163.415 C 491.407 165.417, 503.815 165.449, 511.540 163.485 C 514.818 162.652, 520.875 160.333, 525 158.332 C 535.169 153.399, 545.143 143.358, 550.160 133 C 552.159 128.875, 554.391 123.025, 555.121 120 C 555.851 116.975, 556.400 110.450, 556.342 105.500 C 556.148 89.016, 549.304 73.778, 537.280 63.062 C 530.557 57.070, 520.693 51.736, 512.356 49.585 C 504.211 47.484, 490.209 47.646, 482.500 49.931 M 518.522 62.250 C 520.710 64.037, 523.789 66.850, 525.364 68.500 C 530.570 73.953, 535.982 83.227, 538.740 91.422 C 541.154 98.592, 541.456 100.961, 541.433 112.500 C 541.411 124.055, 541.118 126.257, 538.805 132.314 C 536.535 138.256, 536.443 138.909, 538.090 137.419 C 541.482 134.349, 546.171 126.123, 548.163 119.748 C 550.785 111.356, 550.729 99.572, 548.026 90.818 C 545.517 82.695, 539.488 73.460, 533.482 68.539 C 528.676 64.600, 518.473 59.034, 516.022 59.013 C 515.209 59.006, 516.334 60.462, 518.522 62.250 M 131 350.459 C 131 350.777, 134.989 357.298, 139.864 364.951 C 144.740 372.604, 152.831 386.938, 157.846 396.804 C 164.964 410.810, 167.227 416.288, 168.172 421.797 C 171.084 438.781, 163.916 458.136, 141.760 493.105 C 126.873 516.601, 118.038 527.827, 78.130 573.955 C 66.926 586.905, 55.770 600.078, 53.338 603.229 C 48.311 609.741, 46 614.644, 46 618.796 C 46 622.753, 50.931 629.799, 56.710 634.100 C 63.771 639.356, 101.411 662.852, 109 666.742 C 124.378 674.624, 130.848 671.992, 139.080 654.506 C 141.670 649.002, 149.484 631.225, 156.444 615 C 178.290 564.074, 195.344 531.802, 214.703 504.755 C 221.659 495.038, 231.690 484.664, 238.395 480.255 C 241.087 478.484, 245.812 476.015, 248.895 474.768 C 254.188 472.626, 255.782 472.506, 277.500 472.601 C 295.737 472.682, 303.089 473.133, 313 474.779 C 329.216 477.472, 338.797 478.417, 337.500 477.195 C 336.754 476.492, 135.812 352.563, 131.750 350.300 C 131.338 350.070, 131 350.142, 131 350.459" stroke="none" fill="#FFFFFF" fill-rule="evenodd"></path>
</svg>